<svg t="1647762714688" class="icon" viewBox="0 0 1026 1024" version="1.1" xmlns="http://www.w3.org/2000/svg" p-id="2267" width="200" height="200"><path d="M1026.368543 166.58751h-288.962221V0H292.120278v166.192753H0v78.951426h163.034695v778.855821h701.878181V245.538936H1026.368543zM371.071704 78.951426h287.383192v87.241327H371.071704z m414.889745 866.097148H241.986122V245.538936h543.975327z" p-id="2268"></path><path d="M629.637625 668.323824h-67.503469l45.791827 78.951427h90.004626l34.343871-59.21357-118.42714-204.878952-43.028527 83.293755 58.818812 101.84734zM514.7633 469.36623l32.764842 56.45027 43.028527-83.293755-41.449499-71.845798h-68.687741l-114.874325 199.352351h91.188898l58.029298-100.663068zM331.595991 747.275251h230.538165l-45.39707-78.951427h-116.848111l33.949113-58.818812H342.64919l-45.39707 78.556669 34.343871 59.21357z" p-id="2269"></path></svg>