<svg t="1647486950065" class="icon" viewBox="0 0 1024 1024" version="1.1" xmlns="http://www.w3.org/2000/svg" p-id="2355" width="200" height="200"><path d="M401.066667 384a64 64 0 1 1-64 64A64 64 0 0 1 401.066667 384m0-85.333333a149.333333 149.333333 0 1 0 149.333333 149.333333A149.333333 149.333333 0 0 0 401.066667 298.666667z" p-id="2356"></path><path d="M571.733333 768a42.666667 42.666667 0 0 1-42.666666-42.666667 128 128 0 0 0-256 0 42.666667 42.666667 0 0 1-85.333334 0 213.333333 213.333333 0 0 1 426.666667 0 42.666667 42.666667 0 0 1-42.666667 42.666667z" p-id="2357"></path><path d="M870.4 213.333333v597.333334h-725.333333V213.333333h725.333333m0-85.333333h-725.333333a85.333333 85.333333 0 0 0-85.333334 85.333333v597.333334a85.333333 85.333333 0 0 0 85.333334 85.333333h725.333333a85.333333 85.333333 0 0 0 85.333333-85.333333V213.333333a85.333333 85.333333 0 0 0-85.333333-85.333333z" p-id="2358"></path><path d="M742.4 341.333333h-85.333333a42.666667 42.666667 0 1 0 0 85.333334h85.333333a42.666667 42.666667 0 0 0 0-85.333334zM785.066667 469.333333h-128a42.666667 42.666667 0 1 0 0 85.333334h128a42.666667 42.666667 0 0 0 0-85.333334z" p-id="2359"></path></svg>